<?xml version="1.0" ?><svg id="Layer_1" style="enable-background:new 0 0 512 512;" version="1.1" viewBox="0 0 512 512" xml:space="preserve" xmlns="http://www.w3.org/2000/svg" xmlns:xlink="http://www.w3.org/1999/xlink"><style type="text/css">
	.st0{fill:#E1F9EC;}
	.st1{fill:#55A47E;}
	.st2{fill:#377753;}
	.st3{fill:#FFFFFF;}
</style><g id="XMLID_12_"><g id="XMLID_92_"><polygon class="st0" id="XMLID_96_" points="330.7,6 87.9,6 87.9,506 449.2,506 449.2,122.8   "/><polygon class="st1" id="XMLID_95_" points="330.7,6 449.2,122.8 330.7,122.8   "/><rect class="st1" height="156.1" id="XMLID_94_" width="329" x="62.8" y="298.8"/><polygon class="st2" id="XMLID_93_" points="62.8,454.9 87.9,476.1 87.9,454.9   "/></g><g id="XMLID_807_"><path class="st3" d="M133.9,387.4c0-8.7,2.5-15.9,7.4-21.4c4.9-5.5,11.8-8.3,20.7-8.3c8.9,0,15.8,2.8,20.8,8.3    c4.9,5.5,7.4,12.6,7.4,21.4v1.1c0,8.8-2.5,15.9-7.4,21.4c-4.9,5.5-11.8,8.2-20.6,8.2c-8.9,0-15.9-2.7-20.8-8.2    c-4.9-5.5-7.4-12.6-7.4-21.4V387.4z M152.1,388.6c0,4.9,0.8,8.7,2.3,11.5c1.5,2.8,4.1,4.2,7.8,4.2c3.5,0,6.1-1.4,7.6-4.2    c1.5-2.8,2.3-6.6,2.3-11.5v-1.1c0-4.7-0.8-8.5-2.3-11.4c-1.5-2.8-4.1-4.3-7.7-4.3c-3.6,0-6.1,1.4-7.7,4.3    c-1.5,2.9-2.3,6.6-2.3,11.3V388.6z" id="XMLID_707_"/><path class="st3" d="M203.5,388.1c0-9.1,2-16.4,5.9-21.9c4-5.6,9.5-8.3,16.7-8.3c2.7,0,5.1,0.6,7.3,1.9    c2.2,1.2,4.1,3,5.8,5.3v-31.8h18.2v83.9h-15.9l-1.2-7.1c-1.8,2.7-3.8,4.7-6.2,6.1c-2.3,1.4-5,2.1-8.1,2.1c-7.2,0-12.7-2.7-16.7-8    c-3.9-5.3-5.9-12.3-5.9-21V388.1z M221.7,389.2c0,4.7,0.7,8.4,2.1,11c1.4,2.6,3.7,4,7,4c1.9,0,3.6-0.3,5-1    c1.5-0.7,2.6-1.7,3.6-3.1v-23.5c-0.9-1.5-2.1-2.7-3.5-3.5c-1.4-0.8-3.1-1.2-4.9-1.2c-3.2,0-5.6,1.5-7,4.5c-1.4,3-2.2,6.9-2.2,11.8    V389.2z" id="XMLID_710_"/><path class="st3" d="M296.4,344.4v14.5h9.2v12.6h-9.2v26.7c0,2.1,0.4,3.6,1.3,4.5c0.8,0.9,2,1.4,3.4,1.4    c0.9,0,1.7,0,2.2-0.1c0.6-0.1,1.3-0.2,2.1-0.4l1.2,13.4c-1.8,0.5-3.5,0.8-4.9,1c-1.5,0.2-3.2,0.3-5.2,0.3c-6,0-10.5-1.6-13.6-4.8    c-3.1-3.2-4.7-8.2-4.7-15.2v-26.8h-8.1v-12.6h8.1v-14.5H296.4z" id="XMLID_713_"/></g></g></svg>