<?xml version="1.0" encoding="UTF-8"?>
<!DOCTYPE svg PUBLIC "-//W3C//DTD SVG 1.1//EN" "http://www.w3.org/Graphics/SVG/1.1/DTD/svg11.dtd">
<!-- Creator: CorelDRAW -->
<svg xmlns="http://www.w3.org/2000/svg" xml:space="preserve" width="100%" height="100%" style="shape-rendering:geometricPrecision; text-rendering:geometricPrecision; image-rendering:optimizeQuality; fill-rule:evenodd; clip-rule:evenodd"
viewBox="0 0 4.51412 4.51412"
 xmlns:xlink="http://www.w3.org/1999/xlink">
 <defs>
  <style type="text/css">
   <![CDATA[
    .fil0 {fill:#1C5874}
   ]]>
  </style>
 </defs>
 <g id="Layer_x0020_1">
  <metadata id="CorelCorpID_0Corel-Layer"/>
  <g id="_252802352">
   <path id="_99140304" class="fil0" d="M3.1062 3.57733l-0.16983 0.16983 0 -1.07923c-0.04542,0.03041 -0.11029,0.09161 -0.16036,0.13 -0.02659,0.02038 -0.15221,0.10382 -0.1793,0.11105l0 0.92583 0.25201 0c-0.03072,0.04586 -0.16638,0.16913 -0.21502,0.21777 -0.04976,0.04976 -0.16388,0.1931 -0.24516,0.1931l-0.02739 0c-0.08164,0 -0.19271,-0.14067 -0.24241,-0.19037 -0.04921,-0.04922 -0.18671,-0.17411 -0.21777,-0.2205l0.02739 0 0 -0.70669 -0.18626 0.01095 -0.15339 0 0 0.38348c-0.02152,-0.01441 -0.16435,-0.15085 -0.16435,-0.16983l0 -0.23009c-0.05267,-0.00438 -0.14474,-0.02611 -0.19512,-0.04044 -0.09903,-0.02817 -0.09273,-0.00908 -0.15961,-0.07596 -0.08077,-0.08077 -0.15752,-0.15756 -0.23829,-0.23833 -0.07986,-0.07985 -0.15571,-0.15571 -0.23557,-0.23556 -0.05819,-0.05819 -0.20681,-0.17075 -0.20681,-0.2698 0,-0.10759 0.15014,-0.2186 0.21229,-0.28076 0.08442,-0.08442 0.16483,-0.16486 0.24925,-0.24928 0.16751,-0.1675 0.33102,-0.33101 0.49852,-0.49852 0.16751,-0.16751 0.33102,-0.33102 0.49853,-0.49853 0.08442,-0.08442 0.16486,-0.16482 0.24928,-0.24924 0.04242,-0.04242 0.08082,-0.08086 0.12324,-0.12328 0.04659,-0.04659 0.07158,-0.08902 0.16299,-0.08902l0.00548 0c0.08371,0 0.21946,0.16741 0.27255,0.2205 0.08442,0.08442 0.16483,0.16486 0.24925,0.24928 0.16659,0.16659 0.32921,0.32917 0.4958,0.49577 0.1666,0.16659 0.32918,0.32921 0.49577,0.4958 0.08351,0.08351 0.16302,0.16302 0.24653,0.24652 0.06523,0.06523 0.21229,0.17111 0.21229,0.28624l0 0.00547c0,0.08254 -0.15788,0.20994 -0.20954,0.2616 -0.07985,0.07986 -0.15571,0.15571 -0.23557,0.23557 -0.07985,0.07985 -0.15571,0.15571 -0.23556,0.23557 -0.05294,0.05293 -0.19007,0.2037 -0.23969,0.23692l0 -1.45175 -0.01095 0c-0.0095,0.11411 -0.08925,0.30447 -0.13333,0.3926 -0.03056,0.06109 -0.05786,0.11335 -0.09453,0.16842 -0.02889,0.04338 -0.09584,0.10794 -0.09542,0.16754 0.00246,0.35211 6e-005,0.70515 6e-005,1.05737zm-3.1062 -1.33123c0,0.12469 0.16831,0.24774 0.23968,0.31911 0.09538,0.09537 0.18674,0.18677 0.28212,0.28214 0.18942,0.18943 0.37484,0.37485 0.56426,0.56427 0.18851,0.18851 0.37304,0.373 0.56155,0.56151 0.09537,0.09538 0.18674,0.18677 0.28211,0.28215 0.05328,0.05328 0.22916,0.25884 0.30543,0.25884l0.03287 0c0.09276,0 0.2489,-0.1914 0.30814,-0.25064 0.09538,-0.09538 0.18677,-0.18674 0.28215,-0.28212 0.18851,-0.1885 0.373,-0.37303 0.56151,-0.56154 0.18851,-0.18851 0.37303,-0.373 0.56154,-0.56151 0.09447,-0.09446 0.18493,-0.18493 0.2794,-0.27939 0.05952,-0.05953 0.25336,-0.21801 0.25336,-0.3109l0 -0.02192c0,-0.09276 -0.1914,-0.2489 -0.25064,-0.30814 -0.09538,-0.09538 -0.18674,-0.18677 -0.28212,-0.28215 -0.18851,-0.18851 -0.37303,-0.373 -0.56154,-0.56151 -0.18851,-0.18851 -0.373,-0.37304 -0.56151,-0.56154 -0.09446,-0.09447 -0.18493,-0.18493 -0.27939,-0.2794 -0.05953,-0.05952 -0.21801,-0.25336 -0.3109,-0.25336l-0.02192 0c-0.09276,0 -0.2489,0.1914 -0.30814,0.25064 -0.09538,0.09538 -0.18678,0.18674 -0.28215,0.28212 -0.18851,0.1885 -0.37301,0.37303 -0.56151,0.56154 -0.18851,0.18851 -0.37304,0.373 -0.56154,0.56151 -0.09447,0.09446 -0.18493,0.18493 -0.2794,0.27939 -0.05952,0.05953 -0.25336,0.21801 -0.25336,0.3109z"/>
   <path id="_86523928" class="fil0" d="M2.34884 1.70768l0.35744 0.00155c0,0.12948 -0.11073,0.378 -0.16074,0.46927 -0.0806,0.14709 -0.16016,0.24334 -0.27341,0.35659 -0.17429,0.17429 -0.5313,0.38484 -0.87516,0.38484l-0.14285 0.00307 -0.1475 -0.0195c-0.00508,-0.00068 -0.02192,0.01593 -0.02192,0.02739l0 0.00548c0,0.0502 0.40953,0.12052 0.49853,0.12052l0.23009 0c0.01644,0 0.13781,-0.01481 0.16126,-0.01952 0.05607,-0.01125 0.09733,-0.0204 0.14872,-0.03206 0.09437,-0.02142 0.19097,-0.05399 0.27247,-0.08911 0.14375,-0.06193 0.34506,-0.17637 0.44606,-0.27707 0.13632,-0.13593 0.22882,-0.21804 0.33002,-0.39312 0.05935,-0.10268 0.18635,-0.38446 0.18635,-0.53678l0.30448 -0.00364 -0.65536 -0.57189 -0.65848 0.57398z"/>
   <polygon id="_98244432" class="fil0" points="2.09394,3.10462 2.09271,3.83481 2.43236,3.83481 2.43275,2.99785 "/>
  </g>
 </g>
</svg>
